# xmcd CD database file
#
# Track frame offsets:
#	150
#	2955
#	15600
#	27362
#	50212
#	66015
#	83625
#	102575
#	118550
#	136687
#	152100
#	172875
#
# Disc length: 2393 seconds
#
# Revision: 0
# Processed by: cddbd v1.5.1PL0 Copyright (c) Steve Scherf et al.
# Submitted via: CDex 1.51
#
DISCID=9409570c
DTITLE=R.P.O - R.P.O
DYEAR=1989
DGENRE=JPop
TTITLE0=ポップシクル
TTITLE1=ゴッド・オンリー・ノウズ
TTITLE2=ガール・イン・ザ・スクール
TTITLE3=サーフズ・ダウン
TTITLE4=キングダム
TTITLE5=１０００ナイトメア
TTITLE6=ハート・オブ・セイラー
TTITLE7=フール
TTITLE8=クィーン
TTITLE9=ロンリー・プレイヤー
TTITLE10=１９６８
TTITLE11=フラワー・ライフ
EXTD=YEAR: 1989
EXTT0=
EXTT1=
EXTT2=
EXTT3=
EXTT4=
EXTT5=
EXTT6=
EXTT7=
EXTT8=
EXTT9=
EXTT10=
EXTT11=
PLAYORDER=
